<?xml version="1.0" encoding="utf-8"?>
<!-- Generator: Adobe Illustrator 26.0.1, SVG Export Plug-In . SVG Version: 6.00 Build 0)  -->
<svg version="1.1" id="Layer_1" xmlns="http://www.w3.org/2000/svg" xmlns:xlink="http://www.w3.org/1999/xlink" x="0px" y="0px"
	 viewBox="0 0 465.13 499.33" style="enable-background:new 0 0 465.13 499.33;" xml:space="preserve">
<style type="text/css">
	.st0{fill:#414042;}
	.st1{fill:url(#SVGID_1_);}
	.st2{fill:url(#SVGID_00000176044705881670711510000016144355647366641824_);}
	.st3{fill:url(#SVGID_00000114793586790135196510000015160139488623663491_);}
	.st4{fill:url(#SVGID_00000031193347671246113370000011381653073691286207_);}
	.st5{opacity:0.17;fill:url(#SVGID_00000040571368986040210970000003018318995025358234_);}
	.st6{fill:url(#SVGID_00000016762395040777492240000008660794506491966368_);}
	.st7{fill:url(#SVGID_00000109708686546128316590000004118169943527368855_);}
	.st8{fill:url(#SVGID_00000132047635748172114890000014621875778383736234_);}
	.st9{fill:url(#SVGID_00000112632382479872743610000001863102583163200385_);}
	.st10{fill:url(#SVGID_00000134964372527213762150000016766707376206747830_);}
	.st11{fill:url(#SVGID_00000079460178499058507270000011391928534336929722_);}
	.st12{fill:url(#SVGID_00000027606346469319061250000009958711434559645085_);}
	.st13{fill:url(#SVGID_00000137841228751146918500000014825650248910694824_);}
	.st14{fill:url(#SVGID_00000100385205485442841690000016074649695852718516_);}
	.st15{fill:url(#SVGID_00000084525606448815813340000008176726154050837411_);}
	.st16{fill:#FFFFFF;}
	.st17{font-family:'NorwillPersonalUse';}
	.st18{font-size:85.2747px;}
	.st19{fill:url(#SVGID_00000165918415621872661540000012053613434927413386_);}
	.st20{fill:url(#SVGID_00000089542011843451445390000011007319684627638945_);}
	.st21{fill:url(#SVGID_00000137104194129185565780000010991776180539239575_);}
	.st22{fill:url(#SVGID_00000101075015782557120380000001465541911873925765_);}
	.st23{display:none;fill:url(#SVGID_00000162329622159837748590000013533453237573555080_);}
	.st24{fill:url(#SVGID_00000051355466873971955950000007555072822778956942_);}
	.st25{fill:url(#SVGID_00000166636823847019547420000009753925010174725551_);}
	.st26{fill:url(#SVGID_00000122693796145636987990000001287252328447583900_);}
</style>
<g>
	<g>
		<path class="st0" d="M324.13,121.02c-53.34,51.85-129.69,132.91-196.21,229.53c0,0.1,0,0.1-0.1,0.22c-0.1,0.1-0.1,0.21-0.1,0.21
			h311.38V45.63C385.79,52.47,348.19,96.96,324.13,121.02z"/>
		<linearGradient id="SVGID_1_" gradientUnits="userSpaceOnUse" x1="303.3142" y1="272.2732" x2="324.7784" y2="187.4388">
			<stop  offset="0" style="stop-color:#FFFFFF"/>
			<stop  offset="1" style="stop-color:#000000"/>
		</linearGradient>
		<path class="st1" d="M324.13,121.02c-53.34,51.85-129.69,132.91-196.21,229.53c0,0.1,0,0.1-0.1,0.22c-0.1,0.1-0.1,0.21-0.1,0.21
			h311.38V45.63C385.79,52.47,348.19,96.96,324.13,121.02z"/>
	</g>
	
		<radialGradient id="SVGID_00000065036920036188607500000014776711867158732976_" cx="218.8523" cy="348.1899" r="426.1557" gradientUnits="userSpaceOnUse">
		<stop  offset="0" style="stop-color:#FFFFFF"/>
		<stop  offset="0.3014" style="stop-color:#ED1C24"/>
		<stop  offset="0.6938" style="stop-color:#F04E29"/>
		<stop  offset="1" style="stop-color:#E38925"/>
	</radialGradient>
	<path style="fill:url(#SVGID_00000065036920036188607500000014776711867158732976_);" d="M318.97,114.45
		c-9.59-2.02-19.11-3.87-28.55-5.57c-107,92.13-163.93,226.19-167.66,235.1C189.27,247.36,265.63,166.3,318.97,114.45z"/>
	
		<radialGradient id="SVGID_00000124143647160080523570000017113070285989033641_" cx="301.3574" cy="1.1869" r="363.9957" gradientUnits="userSpaceOnUse">
		<stop  offset="0" style="stop-color:#FFFFFF"/>
		<stop  offset="0.3014" style="stop-color:#ED1C24"/>
		<stop  offset="0.6938" style="stop-color:#F04E29"/>
		<stop  offset="1" style="stop-color:#E38925"/>
	</radialGradient>
	<path style="fill:url(#SVGID_00000124143647160080523570000017113070285989033641_);" d="M386.23,52.95
		C208.73,79.45,44.43,70.12,44.43,70.12c121.9,26.5,272.9,17.28,272.9,17.28c-9.31,6.82-18.26,14.03-26.92,21.48
		c9.44,1.7,18.96,3.55,28.55,5.57C359.1,75.44,386.23,52.95,386.23,52.95z"/>
	
		<radialGradient id="SVGID_00000062871722313810299420000008233540048586310017_" cx="175.1716" cy="362.7501" r="482.9191" gradientUnits="userSpaceOnUse">
		<stop  offset="0" style="stop-color:#FFFFFF"/>
		<stop  offset="0.3014" style="stop-color:#ED1C24"/>
		<stop  offset="0.6938" style="stop-color:#F04E29"/>
		<stop  offset="1" style="stop-color:#E38925"/>
	</radialGradient>
	<path style="fill:url(#SVGID_00000062871722313810299420000008233540048586310017_);" d="M227.27,117.82
		c-74.2,6.68-182.85,8.05-182.85,8.05c55.65,14.52,127.2,13.14,127.2,13.14C84.38,240.47,60.43,338.17,59.05,344.09
		C134.63,193.3,227.27,117.82,227.27,117.82z"/>
	
		<radialGradient id="SVGID_00000028305993025864582660000008914258578479937470_" cx="217.6584" cy="128.7504" r="134.8122" gradientUnits="userSpaceOnUse">
		<stop  offset="0" style="stop-color:#FFFFFF"/>
		<stop  offset="0.3014" style="stop-color:#ED1C24"/>
		<stop  offset="0.6938" style="stop-color:#F04E29"/>
		<stop  offset="1" style="stop-color:#E38925"/>
	</radialGradient>
	<path style="opacity:0.17;fill:url(#SVGID_00000028305993025864582660000008914258578479937470_);" d="M25.44,132.45v218.54h14.52
		c0.1-0.1,0.1-0.21,0.1-0.32c1.38-5.92,25.33-103.62,112.58-205.07C152.64,145.59,81.09,146.97,25.44,132.45z"/>
	<g>
		<g>
			
				<radialGradient id="SVGID_00000154418940524597674210000012413786154151006886_" cx="379.8456" cy="294.7929" r="534.4778" gradientUnits="userSpaceOnUse">
				<stop  offset="0" style="stop-color:#FFFFFF"/>
				<stop  offset="0.3014" style="stop-color:#ED1C24"/>
				<stop  offset="0.6938" style="stop-color:#F04E29"/>
				<stop  offset="1" style="stop-color:#E38925"/>
			</radialGradient>
			<path style="fill:url(#SVGID_00000154418940524597674210000012413786154151006886_);" d="M36.82,435.33h3.14v-39.48H37.5v3.06
				H25.96V384.4h39.39v14.52H53.89v-3.06h-2.46v39.48h3.06v11.46H36.82V435.33z"/>
			
				<radialGradient id="SVGID_00000036251444535464809260000005426561347905825451_" cx="379.8456" cy="294.7929" r="534.4778" gradientUnits="userSpaceOnUse">
				<stop  offset="0" style="stop-color:#FFFFFF"/>
				<stop  offset="0.3014" style="stop-color:#ED1C24"/>
				<stop  offset="0.6938" style="stop-color:#F04E29"/>
				<stop  offset="1" style="stop-color:#E38925"/>
			</radialGradient>
			<path style="fill:url(#SVGID_00000036251444535464809260000005426561347905825451_);" d="M80.21,431.17v0.76l3.31,3.31h24.71
				v2.55l-9.08,9h-21.4l-9-9v-24.96l9-9h21.4l9.08,9v15.03l-3.31,3.31H80.21z M80.21,420.39h16.47v-1.78l-3.31-3.31h-9.85
				l-3.31,3.31V420.39z"/>
			
				<radialGradient id="SVGID_00000160875072049053388630000001264362910270929323_" cx="379.8456" cy="294.7929" r="534.4778" gradientUnits="userSpaceOnUse">
				<stop  offset="0" style="stop-color:#FFFFFF"/>
				<stop  offset="0.3014" style="stop-color:#ED1C24"/>
				<stop  offset="0.6938" style="stop-color:#F04E29"/>
				<stop  offset="1" style="stop-color:#E38925"/>
			</radialGradient>
			<path style="fill:url(#SVGID_00000160875072049053388630000001264362910270929323_);" d="M139.55,420.82v-2.21l-3.23-3.31h-9.85
				l-3.31,3.31v13.33l3.31,3.31h9.85l3.23-3.31v-2.12h11.55v7.98l-9,9h-21.48l-9-9v-24.96l9-9h21.48l9,9v7.98H139.55z"/>
			
				<radialGradient id="SVGID_00000116203430037235538600000003159897704757865392_" cx="379.8456" cy="294.7929" r="534.4778" gradientUnits="userSpaceOnUse">
				<stop  offset="0" style="stop-color:#FFFFFF"/>
				<stop  offset="0.3014" style="stop-color:#ED1C24"/>
				<stop  offset="0.6938" style="stop-color:#F04E29"/>
				<stop  offset="1" style="stop-color:#E38925"/>
			</radialGradient>
			<path style="fill:url(#SVGID_00000116203430037235538600000003159897704757865392_);" d="M154.5,384.31h17.66v11.55h-3.14v11.29
				l3.4-3.31h15.62l9,9v22.41h3.06v11.55h-17.66v-11.55h3.14v-16.64l-3.4-3.31h-9.76l-3.4,3.31v16.64h3.14v11.55H154.5v-11.55h3.06
				v-39.39h-3.06V384.31z"/>
			
				<radialGradient id="SVGID_00000018235746198017860700000002434135624227884203_" cx="379.8456" cy="294.7929" r="534.4778" gradientUnits="userSpaceOnUse">
				<stop  offset="0" style="stop-color:#FFFFFF"/>
				<stop  offset="0.3014" style="stop-color:#ED1C24"/>
				<stop  offset="0.6938" style="stop-color:#F04E29"/>
				<stop  offset="1" style="stop-color:#E38925"/>
			</radialGradient>
			<path style="fill:url(#SVGID_00000018235746198017860700000002434135624227884203_);" d="M203.49,415.3v-11.46H218v3.31
				l3.31-3.31h15.71l9,9v22.41h3.06v11.55h-17.66v-11.55h3.06v-16.64l-3.31-3.31h-9.85l-3.31,3.31v16.64h3.14v11.55h-17.66v-11.55
				h3.06V415.3H203.49z"/>
			
				<radialGradient id="SVGID_00000014632668739243813770000007545044754195535749_" cx="379.8456" cy="294.7929" r="534.4778" gradientUnits="userSpaceOnUse">
				<stop  offset="0" style="stop-color:#FFFFFF"/>
				<stop  offset="0.3014" style="stop-color:#ED1C24"/>
				<stop  offset="0.6938" style="stop-color:#F04E29"/>
				<stop  offset="1" style="stop-color:#E38925"/>
			</radialGradient>
			<path style="fill:url(#SVGID_00000014632668739243813770000007545044754195535749_);" d="M291.95,412.84v24.96l-9,9h-21.48l-9-9
				v-24.96l9-9h21.48L291.95,412.84z M280.41,418.61l-3.31-3.31h-9.85l-3.23,3.31v13.33l3.23,3.31h9.85l3.31-3.31V418.61z"/>
			
				<radialGradient id="SVGID_00000015325079092132495380000011376118836957996173_" cx="379.8456" cy="294.7929" r="534.4778" gradientUnits="userSpaceOnUse">
				<stop  offset="0" style="stop-color:#FFFFFF"/>
				<stop  offset="0.3014" style="stop-color:#ED1C24"/>
				<stop  offset="0.6938" style="stop-color:#F04E29"/>
				<stop  offset="1" style="stop-color:#E38925"/>
			</radialGradient>
			<path style="fill:url(#SVGID_00000015325079092132495380000011376118836957996173_);" d="M295.35,446.8v-11.55h3.06v-39.39h-3.06
				v-11.55h17.66v11.55h-3.14v39.39h3.14v11.55H295.35z"/>
			
				<radialGradient id="SVGID_00000099659340228790950560000016276356866405986751_" cx="379.8456" cy="294.7929" r="534.4778" gradientUnits="userSpaceOnUse">
				<stop  offset="0" style="stop-color:#FFFFFF"/>
				<stop  offset="0.3014" style="stop-color:#ED1C24"/>
				<stop  offset="0.6938" style="stop-color:#F04E29"/>
				<stop  offset="1" style="stop-color:#E38925"/>
			</radialGradient>
			<path style="fill:url(#SVGID_00000099659340228790950560000016276356866405986751_);" d="M355.88,412.84v24.96l-9,9H325.4l-9-9
				v-24.96l9-9h21.48L355.88,412.84z M344.34,418.61l-3.31-3.31h-9.85l-3.23,3.31v13.33l3.23,3.31h9.85l3.31-3.31V418.61z"/>
			
				<radialGradient id="SVGID_00000180344098771035057040000017003884651028919185_" cx="379.8456" cy="294.7929" r="534.4778" gradientUnits="userSpaceOnUse">
				<stop  offset="0" style="stop-color:#FFFFFF"/>
				<stop  offset="0.3014" style="stop-color:#ED1C24"/>
				<stop  offset="0.6938" style="stop-color:#F04E29"/>
				<stop  offset="1" style="stop-color:#E38925"/>
			</radialGradient>
			<path style="fill:url(#SVGID_00000180344098771035057040000017003884651028919185_);" d="M398.67,403.84v53.49l-8.92,8.92h-30.48
				v-14.52h11.55v3.06h13.08l3.31-3.31v-9.17l-3.31,3.31h-15.62l-9-9v-23.77l9-9h15.62l3.31,3.31v-3.31H398.67z M387.21,418.61
				l-3.31-3.31h-9.85l-3.23,3.31v12.14l3.23,3.31h9.85l3.31-3.31V418.61z"/>
			
				<radialGradient id="SVGID_00000016065250847537770520000005497845972489447588_" cx="379.8456" cy="294.7929" r="534.4778" gradientUnits="userSpaceOnUse">
				<stop  offset="0" style="stop-color:#FFFFFF"/>
				<stop  offset="0.3014" style="stop-color:#ED1C24"/>
				<stop  offset="0.6938" style="stop-color:#F04E29"/>
				<stop  offset="1" style="stop-color:#E38925"/>
			</radialGradient>
			<path style="fill:url(#SVGID_00000016065250847537770520000005497845972489447588_);" d="M433.06,415.3H430v-11.46h17.66v11.46
				h-3.06v42.03l-9,8.92h-30.48v-14.52h11.46v3.06h13.16l3.31-3.31v-9.17l-3.31,3.31h-15.62l-9-9V415.3h-3.06v-11.46h17.66v11.46
				h-3.14v15.45l3.4,3.31h9.76l3.31-3.31V415.3z"/>
		</g>
	</g>
	<g>
		<text transform="matrix(1 0 0 1 226.6107 311.1406)" class="st16 st17 st18">Eyes</text>
	</g>
	<g>
		
			<radialGradient id="SVGID_00000088833928977594301550000010909926213874982799_" cx="515.9948" cy="29.9537" r="278.2783" gradientTransform="matrix(0 -1 1 0 201.1389 583.0969)" gradientUnits="userSpaceOnUse">
			<stop  offset="0" style="stop-color:#FFFFFF"/>
			<stop  offset="0.3014" style="stop-color:#ED1C24"/>
			<stop  offset="0.6938" style="stop-color:#F04E29"/>
			<stop  offset="1" style="stop-color:#E38925"/>
		</radialGradient>
		<polygon style="fill:url(#SVGID_00000088833928977594301550000010909926213874982799_);" points="400.43,202.93 400.43,238.58 
			364.78,238.58 364.78,202.93 		"/>
		
			<radialGradient id="SVGID_00000011018608066312651650000004826861921717084550_" cx="515.9948" cy="29.9537" r="278.2783" gradientTransform="matrix(0 -1 1 0 201.1389 583.0969)" gradientUnits="userSpaceOnUse">
			<stop  offset="0" style="stop-color:#FFFFFF"/>
			<stop  offset="0.3014" style="stop-color:#ED1C24"/>
			<stop  offset="0.6938" style="stop-color:#F04E29"/>
			<stop  offset="1" style="stop-color:#E38925"/>
		</radialGradient>
		<polygon style="fill:url(#SVGID_00000011018608066312651650000004826861921717084550_);" points="439.04,164.31 439.04,199.96 
			403.4,199.96 403.4,164.31 		"/>
		
			<radialGradient id="SVGID_00000100377412094342126640000018046348768774456200_" cx="515.9948" cy="29.9537" r="278.2783" gradientTransform="matrix(0 -1 1 0 201.1389 583.0969)" gradientUnits="userSpaceOnUse">
			<stop  offset="0" style="stop-color:#FFFFFF"/>
			<stop  offset="0.3014" style="stop-color:#ED1C24"/>
			<stop  offset="0.6938" style="stop-color:#F04E29"/>
			<stop  offset="1" style="stop-color:#E38925"/>
		</radialGradient>
		<polygon style="fill:url(#SVGID_00000100377412094342126640000018046348768774456200_);" points="403.4,133.03 403.4,164.31 
			372.11,164.31 372.11,133.03 		"/>
		
			<radialGradient id="SVGID_00000127041931964936912700000009165471604144782237_" cx="527.3865" cy="69.9694" r="181.2556" gradientTransform="matrix(0 -1 1 0 201.1389 583.0969)" gradientUnits="userSpaceOnUse">
			<stop  offset="0" style="stop-color:#FFFFFF"/>
			<stop  offset="0.3014" style="stop-color:#ED1C24"/>
			<stop  offset="0.6938" style="stop-color:#F04E29"/>
			<stop  offset="1" style="stop-color:#E38925"/>
		</radialGradient>
		<polygon style="fill:url(#SVGID_00000127041931964936912700000009165471604144782237_);" points="383.34,98.65 383.34,119.03 
			362.96,119.03 362.96,98.65 		"/>
		
			<radialGradient id="SVGID_00000104685963270640684040000009649518784153033090_" cx="515.9948" cy="29.9537" r="278.2783" gradientTransform="matrix(0 -1 1 0 201.1389 583.0969)" gradientUnits="userSpaceOnUse">
			<stop  offset="0" style="stop-color:#FFFFFF"/>
			<stop  offset="0.3014" style="stop-color:#ED1C24"/>
			<stop  offset="0.6938" style="stop-color:#F04E29"/>
			<stop  offset="1" style="stop-color:#E38925"/>
		</radialGradient>
		<polygon style="display:none;fill:url(#SVGID_00000104685963270640684040000009649518784153033090_);" points="369.42,107.96 
			369.42,130.34 347.05,130.34 347.05,107.96 		"/>
		
			<radialGradient id="SVGID_00000168821096083393030170000016259773770905115835_" cx="515.9948" cy="29.9537" r="278.2783" gradientTransform="matrix(0 -1 1 0 201.1389 583.0969)" gradientUnits="userSpaceOnUse">
			<stop  offset="0" style="stop-color:#FFFFFF"/>
			<stop  offset="0.3014" style="stop-color:#ED1C24"/>
			<stop  offset="0.6938" style="stop-color:#F04E29"/>
			<stop  offset="1" style="stop-color:#E38925"/>
		</radialGradient>
		<polygon style="fill:url(#SVGID_00000168821096083393030170000016259773770905115835_);" points="420.11,118.08 420.11,133.59 
			404.6,133.59 404.6,118.08 		"/>
		
			<radialGradient id="SVGID_00000134240587103827713700000011745730886058360475_" cx="515.9948" cy="29.9537" r="278.2783" gradientTransform="matrix(0 -1 1 0 201.1389 583.0969)" gradientUnits="userSpaceOnUse">
			<stop  offset="0" style="stop-color:#FFFFFF"/>
			<stop  offset="0.3014" style="stop-color:#ED1C24"/>
			<stop  offset="0.6938" style="stop-color:#F04E29"/>
			<stop  offset="1" style="stop-color:#E38925"/>
		</radialGradient>
		<polygon style="fill:url(#SVGID_00000134240587103827713700000011745730886058360475_);" points="363.38,182.14 363.38,198.48 
			347.05,198.48 347.05,182.14 		"/>
		
			<radialGradient id="SVGID_00000171689568207405333840000015666124211104866993_" cx="515.9948" cy="29.9537" r="278.2783" gradientTransform="matrix(0 -1 1 0 201.1389 583.0969)" gradientUnits="userSpaceOnUse">
			<stop  offset="0" style="stop-color:#FFFFFF"/>
			<stop  offset="0.3014" style="stop-color:#ED1C24"/>
			<stop  offset="0.6938" style="stop-color:#F04E29"/>
			<stop  offset="1" style="stop-color:#E38925"/>
		</radialGradient>
		<polygon style="fill:url(#SVGID_00000171689568207405333840000015666124211104866993_);" points="346.3,132.47 346.3,146.4 
			332.38,146.4 332.38,132.47 		"/>
	</g>
</g>
</svg>
